# xmcd
#
# Track frame offsets:
# 150
# 17623
# 42270
# 68436
# 86244
# 103591
# 125646
# 137811
# 166277
# 184126
# 237640
# 264927
# 288764
# 307044
# 339618
#
# Disc length: 4767 seconds
#
#
# Revision: 0
# Processed by: cddbd v1.5.1PL2 Copyright (c) Steve Scherf et al.
# Submitted via: FreeRIP 2.91 
#
DISCID=d5129d0f
DTITLE=Marvin Gaye - Hits
DYEAR=1900
DGENRE=Soul
TTITLE0=What´s going on
TTITLE1=Inner City Blues
TTITLE2=You´re the Man (Pts 1&2
TTITLE3=Where are we going?
TTITLE4=Trouble Man
TTITLE5=Let´s get it on
TTITLE6=come get to this
TTITLE7=Distant lover (live)
TTITLE8=I want you
TTITLE9=got to give it up
TTITLE10=Rockin´after midnight
TTITLE11=Midnight Lady
TTITLE12=Anger
TTITLE13=Ego tripping out
TTITLE14=Sexual healing
EXTD=
EXTT0=
EXTT1=
EXTT2=
EXTT3=
EXTT4=
EXTT5=
EXTT6=
EXTT7=
EXTT8=
EXTT9=
EXTT10=
EXTT11=
EXTT12=
EXTT13=
EXTT14=
PLAYORDER=
